<?xml version="1.0" encoding="UTF-8" standalone="no"?>
<!DOCTYPE svg PUBLIC "-//W3C//DTD SVG 1.1//EN"
 "http://www.w3.org/Graphics/SVG/1.1/DTD/svg11.dtd">
<!-- Generated by graphviz version 2.40.1 (20161225.0304)
 -->
<!-- Title: dependencies Pages: 1 -->
<svg width="785pt" height="211pt"
 viewBox="0.00 0.00 785.00 211.00" xmlns="http://www.w3.org/2000/svg" xmlns:xlink="http://www.w3.org/1999/xlink">
<g id="graph0" class="graph" transform="scale(1 1) rotate(0) translate(4 207)">
<title>dependencies</title>
<polygon fill="#ffffff" stroke="transparent" points="-4,4 -4,-207 781,-207 781,4 -4,4"/>
<text text-anchor="start" x="367.5091" y="-42.4" font-family="sans-serif" font-weight="bold" font-size="14.00" fill="#000000">Legend</text>
<polygon fill="#ffffb3" stroke="transparent" points="154.5,-10 154.5,-30 174.5,-30 174.5,-10 154.5,-10"/>
<text text-anchor="start" x="178.129" y="-15.4" font-family="sans-serif" font-size="14.00" fill="#000000"> &#160;Declarations</text>
<polygon fill="#8dd3c7" stroke="transparent" points="267.5,-10 267.5,-30 287.5,-30 287.5,-10 267.5,-10"/>
<text text-anchor="start" x="291.2251" y="-15.4" font-family="sans-serif" font-size="14.00" fill="#000000"> &#160;Module</text>
<polygon fill="#80b1d3" stroke="transparent" points="353.5,-10 353.5,-30 373.5,-30 373.5,-10 353.5,-10"/>
<text text-anchor="start" x="377.2812" y="-15.4" font-family="sans-serif" font-size="14.00" fill="#000000"> &#160;Bootstrap</text>
<polygon fill="#fdb462" stroke="transparent" points="450.5,-10 450.5,-30 470.5,-30 470.5,-10 450.5,-10"/>
<text text-anchor="start" x="474.1732" y="-15.4" font-family="sans-serif" font-size="14.00" fill="#000000"> &#160;Providers</text>
<polygon fill="#fb8072" stroke="transparent" points="546.5,-10 546.5,-30 566.5,-30 566.5,-10 546.5,-10"/>
<text text-anchor="start" x="570.2258" y="-15.4" font-family="sans-serif" font-size="14.00" fill="#000000"> &#160;Exports</text>
<g id="clust1" class="cluster">
<title>cluster_ItemsModule</title>
<polygon fill="none" stroke="#000000" stroke-dasharray="1,5" points="8,-70 8,-195 769,-195 769,-70 8,-70"/>
</g>
<g id="clust2" class="cluster">
<title>cluster_ItemsModule_declarations</title>
<polygon fill="none" stroke="#000000" points="316,-78 316,-130 761,-130 761,-78 316,-78"/>
</g>
<g id="clust6" class="cluster">
<title>cluster_ItemsModule_imports</title>
<polygon fill="none" stroke="#000000" points="156,-78 156,-130 308,-130 308,-78 156,-78"/>
</g>
<g id="clust9" class="cluster">
<title>cluster_ItemsModule_providers</title>
<polygon fill="none" stroke="#000000" points="16,-78 16,-130 148,-130 148,-78 16,-78"/>
</g>
<!-- ItemsComponent -->
<g id="node1" class="node">
<title>ItemsComponent</title>
<polygon fill="#ffffb3" stroke="#000000" points="753.4342,-122 640.5658,-122 640.5658,-86 753.4342,-86 753.4342,-122"/>
<text text-anchor="middle" x="697" y="-99.8" font-family="Times,serif" font-size="14.00" fill="#000000">ItemsComponent</text>
</g>
<!-- ItemsModule -->
<g id="node4" class="node">
<title>ItemsModule</title>
<polygon fill="#8dd3c7" stroke="#000000" points="436.1515,-187 433.1515,-191 412.1515,-191 409.1515,-187 345.8485,-187 345.8485,-151 436.1515,-151 436.1515,-187"/>
<text text-anchor="middle" x="391" y="-164.8" font-family="Times,serif" font-size="14.00" fill="#000000">ItemsModule</text>
</g>
<!-- ItemsComponent&#45;&gt;ItemsModule -->
<g id="edge1" class="edge">
<title>ItemsComponent&#45;&gt;ItemsModule</title>
<path fill="none" stroke="#000000" d="M697,-122.2843C697,-143.3211 697,-175 697,-175 697,-175 446.4809,-175 446.4809,-175"/>
<polygon fill="#000000" stroke="#000000" points="446.4809,-171.5001 436.4809,-175 446.4808,-178.5001 446.4809,-171.5001"/>
</g>
<!-- ItemsDetailComponent -->
<g id="node2" class="node">
<title>ItemsDetailComponent</title>
<polygon fill="#ffffb3" stroke="#000000" points="622.1414,-122 475.8586,-122 475.8586,-86 622.1414,-86 622.1414,-122"/>
<text text-anchor="middle" x="549" y="-99.8" font-family="Times,serif" font-size="14.00" fill="#000000">ItemsDetailComponent</text>
</g>
<!-- ItemsDetailComponent&#45;&gt;ItemsModule -->
<g id="edge2" class="edge">
<title>ItemsDetailComponent&#45;&gt;ItemsModule</title>
<path fill="none" stroke="#000000" d="M549,-122.0225C549,-139.3734 549,-163 549,-163 549,-163 446.2765,-163 446.2765,-163"/>
<polygon fill="#000000" stroke="#000000" points="446.2765,-159.5001 436.2765,-163 446.2764,-166.5001 446.2765,-159.5001"/>
</g>
<!-- ItemsListComponent -->
<g id="node3" class="node">
<title>ItemsListComponent</title>
<polygon fill="#ffffb3" stroke="#000000" points="458.212,-122 323.788,-122 323.788,-86 458.212,-86 458.212,-122"/>
<text text-anchor="middle" x="391" y="-99.8" font-family="Times,serif" font-size="14.00" fill="#000000">ItemsListComponent</text>
</g>
<!-- ItemsListComponent&#45;&gt;ItemsModule -->
<g id="edge3" class="edge">
<title>ItemsListComponent&#45;&gt;ItemsModule</title>
<path fill="none" stroke="#000000" d="M391,-122.1061C391,-122.1061 391,-140.991 391,-140.991"/>
<polygon fill="#000000" stroke="#000000" points="387.5001,-140.9909 391,-150.991 394.5001,-140.991 387.5001,-140.9909"/>
</g>
<!-- ItemsRoutingModule -->
<g id="node5" class="node">
<title>ItemsRoutingModule</title>
<polygon fill="#8dd3c7" stroke="#000000" points="299.7688,-122 296.7688,-126 275.7688,-126 272.7688,-122 164.2312,-122 164.2312,-86 299.7688,-86 299.7688,-122"/>
<text text-anchor="middle" x="232" y="-99.8" font-family="Times,serif" font-size="14.00" fill="#000000">ItemsRoutingModule</text>
</g>
<!-- ItemsRoutingModule&#45;&gt;ItemsModule -->
<g id="edge4" class="edge">
<title>ItemsRoutingModule&#45;&gt;ItemsModule</title>
<path fill="none" stroke="#000000" d="M232,-122.0225C232,-139.3734 232,-163 232,-163 232,-163 335.437,-163 335.437,-163"/>
<polygon fill="#000000" stroke="#000000" points="335.437,-166.5001 345.437,-163 335.4369,-159.5001 335.437,-166.5001"/>
</g>
<!-- ItemService -->
<g id="node6" class="node">
<title>ItemService</title>
<ellipse fill="#fdb462" stroke="#000000" cx="82" cy="-104" rx="57.879" ry="18"/>
<text text-anchor="middle" x="82" y="-99.8" font-family="Times,serif" font-size="14.00" fill="#000000">ItemService</text>
</g>
<!-- ItemService&#45;&gt;ItemsModule -->
<g id="edge5" class="edge">
<title>ItemService&#45;&gt;ItemsModule</title>
<path fill="none" stroke="#000000" d="M82,-122.2843C82,-143.3211 82,-175 82,-175 82,-175 335.7378,-175 335.7378,-175"/>
<polygon fill="#000000" stroke="#000000" points="335.7379,-178.5001 345.7378,-175 335.7378,-171.5001 335.7379,-178.5001"/>
</g>
</g>
</svg>
