<?xml version="1.0" encoding="UTF-8" standalone="no"?>
<!DOCTYPE svg PUBLIC "-//W3C//DTD SVG 1.1//EN"
 "http://www.w3.org/Graphics/SVG/1.1/DTD/svg11.dtd">
<!-- Generated by graphviz version 2.40.1 (20161225.0304)
 -->
<!-- Title: dependencies Pages: 1 -->
<svg width="632pt" height="211pt"
 viewBox="0.00 0.00 632.00 211.00" xmlns="http://www.w3.org/2000/svg" xmlns:xlink="http://www.w3.org/1999/xlink">
<g id="graph0" class="graph" transform="scale(1 1) rotate(0) translate(4 207)">
<title>dependencies</title>
<polygon fill="#ffffff" stroke="transparent" points="-4,4 -4,-207 628,-207 628,4 -4,4"/>
<text text-anchor="start" x="291.0091" y="-42.4" font-family="sans-serif" font-weight="bold" font-size="14.00" fill="#000000">Legend</text>
<polygon fill="#ffffb3" stroke="transparent" points="78,-10 78,-30 98,-30 98,-10 78,-10"/>
<text text-anchor="start" x="101.629" y="-15.4" font-family="sans-serif" font-size="14.00" fill="#000000"> &#160;Declarations</text>
<polygon fill="#8dd3c7" stroke="transparent" points="191,-10 191,-30 211,-30 211,-10 191,-10"/>
<text text-anchor="start" x="214.7251" y="-15.4" font-family="sans-serif" font-size="14.00" fill="#000000"> &#160;Module</text>
<polygon fill="#80b1d3" stroke="transparent" points="277,-10 277,-30 297,-30 297,-10 277,-10"/>
<text text-anchor="start" x="300.7812" y="-15.4" font-family="sans-serif" font-size="14.00" fill="#000000"> &#160;Bootstrap</text>
<polygon fill="#fdb462" stroke="transparent" points="374,-10 374,-30 394,-30 394,-10 374,-10"/>
<text text-anchor="start" x="397.6732" y="-15.4" font-family="sans-serif" font-size="14.00" fill="#000000"> &#160;Providers</text>
<polygon fill="#fb8072" stroke="transparent" points="470,-10 470,-30 490,-30 490,-10 470,-10"/>
<text text-anchor="start" x="493.7258" y="-15.4" font-family="sans-serif" font-size="14.00" fill="#000000"> &#160;Exports</text>
<g id="clust1" class="cluster">
<title>cluster_ContactModule</title>
<polygon fill="none" stroke="#000000" stroke-dasharray="1,5" points="8,-70 8,-195 616,-195 616,-70 8,-70"/>
</g>
<g id="clust2" class="cluster">
<title>cluster_ContactModule_declarations</title>
<polygon fill="none" stroke="#000000" points="468,-78 468,-130 608,-130 608,-78 468,-78"/>
</g>
<g id="clust4" class="cluster">
<title>cluster_ContactModule_imports</title>
<polygon fill="none" stroke="#000000" points="16,-78 16,-130 460,-130 460,-78 16,-78"/>
</g>
<!-- ContactComponent -->
<g id="node1" class="node">
<title>ContactComponent</title>
<polygon fill="#ffffb3" stroke="#000000" points="600.3795,-122 475.6205,-122 475.6205,-86 600.3795,-86 600.3795,-122"/>
<text text-anchor="middle" x="538" y="-99.8" font-family="Times,serif" font-size="14.00" fill="#000000">ContactComponent</text>
</g>
<!-- ContactModule -->
<g id="node2" class="node">
<title>ContactModule</title>
<polygon fill="#8dd3c7" stroke="#000000" points="346.5968,-187 343.5968,-191 322.5968,-191 319.5968,-187 243.4032,-187 243.4032,-151 346.5968,-151 346.5968,-187"/>
<text text-anchor="middle" x="295" y="-164.8" font-family="Times,serif" font-size="14.00" fill="#000000">ContactModule</text>
</g>
<!-- ContactComponent&#45;&gt;ContactModule -->
<g id="edge1" class="edge">
<title>ContactComponent&#45;&gt;ContactModule</title>
<path fill="none" stroke="#000000" d="M538,-122.1061C538,-141.3391 538,-169 538,-169 538,-169 356.8315,-169 356.8315,-169"/>
<polygon fill="#000000" stroke="#000000" points="356.8316,-165.5001 346.8315,-169 356.8315,-172.5001 356.8316,-165.5001"/>
</g>
<!-- ContactRoutingModule -->
<g id="node3" class="node">
<title>ContactRoutingModule</title>
<polygon fill="#8dd3c7" stroke="#000000" points="452.2148,-122 449.2148,-126 428.2148,-126 425.2148,-122 303.7852,-122 303.7852,-86 452.2148,-86 452.2148,-122"/>
<text text-anchor="middle" x="378" y="-99.8" font-family="Times,serif" font-size="14.00" fill="#000000">ContactRoutingModule</text>
</g>
<!-- ContactRoutingModule&#45;&gt;ContactModule -->
<g id="edge2" class="edge">
<title>ContactRoutingModule&#45;&gt;ContactModule</title>
<path fill="none" stroke="#000000" d="M325.2206,-122.1061C325.2206,-122.1061 325.2206,-140.991 325.2206,-140.991"/>
<polygon fill="#000000" stroke="#000000" points="321.7206,-140.9909 325.2206,-150.991 328.7206,-140.991 321.7206,-140.9909"/>
</g>
<!-- ContactServiceModule -->
<g id="node4" class="node">
<title>ContactServiceModule</title>
<polygon fill="#8dd3c7" stroke="#000000" points="285.5744,-122 282.5744,-126 261.5744,-126 258.5744,-122 140.4256,-122 140.4256,-86 285.5744,-86 285.5744,-122"/>
<text text-anchor="middle" x="213" y="-99.8" font-family="Times,serif" font-size="14.00" fill="#000000">ContactServiceModule</text>
</g>
<!-- ContactServiceModule&#45;&gt;ContactModule -->
<g id="edge3" class="edge">
<title>ContactServiceModule&#45;&gt;ContactModule</title>
<path fill="none" stroke="#000000" d="M264.4944,-122.1061C264.4944,-122.1061 264.4944,-140.991 264.4944,-140.991"/>
<polygon fill="#000000" stroke="#000000" points="260.9945,-140.9909 264.4944,-150.991 267.9945,-140.991 260.9945,-140.9909"/>
</g>
<!-- SharedModule -->
<g id="node5" class="node">
<title>SharedModule</title>
<polygon fill="#8dd3c7" stroke="#000000" points="122.4231,-122 119.4231,-126 98.4231,-126 95.4231,-122 23.5769,-122 23.5769,-86 122.4231,-86 122.4231,-122"/>
<text text-anchor="middle" x="73" y="-99.8" font-family="Times,serif" font-size="14.00" fill="#000000">SharedModule</text>
</g>
<!-- SharedModule&#45;&gt;ContactModule -->
<g id="edge4" class="edge">
<title>SharedModule&#45;&gt;ContactModule</title>
<path fill="none" stroke="#000000" d="M73,-122.1061C73,-141.3391 73,-169 73,-169 73,-169 233.231,-169 233.231,-169"/>
<polygon fill="#000000" stroke="#000000" points="233.2311,-172.5001 243.231,-169 233.231,-165.5001 233.2311,-172.5001"/>
</g>
</g>
</svg>
