<?xml version="1.0" encoding="UTF-8" standalone="no"?>
<!DOCTYPE svg PUBLIC "-//W3C//DTD SVG 1.1//EN"
 "http://www.w3.org/Graphics/SVG/1.1/DTD/svg11.dtd">
<!-- Generated by graphviz version 2.40.1 (20161225.0304)
 -->
<!-- Title: dependencies Pages: 1 -->
<svg width="1049pt" height="211pt"
 viewBox="0.00 0.00 1049.00 211.00" xmlns="http://www.w3.org/2000/svg" xmlns:xlink="http://www.w3.org/1999/xlink">
<g id="graph0" class="graph" transform="scale(1 1) rotate(0) translate(4 207)">
<title>dependencies</title>
<polygon fill="#ffffff" stroke="transparent" points="-4,4 -4,-207 1045,-207 1045,4 -4,4"/>
<text text-anchor="start" x="499.5091" y="-42.4" font-family="sans-serif" font-weight="bold" font-size="14.00" fill="#000000">Legend</text>
<polygon fill="#ffffb3" stroke="transparent" points="286.5,-10 286.5,-30 306.5,-30 306.5,-10 286.5,-10"/>
<text text-anchor="start" x="310.129" y="-15.4" font-family="sans-serif" font-size="14.00" fill="#000000"> &#160;Declarations</text>
<polygon fill="#8dd3c7" stroke="transparent" points="399.5,-10 399.5,-30 419.5,-30 419.5,-10 399.5,-10"/>
<text text-anchor="start" x="423.2251" y="-15.4" font-family="sans-serif" font-size="14.00" fill="#000000"> &#160;Module</text>
<polygon fill="#80b1d3" stroke="transparent" points="485.5,-10 485.5,-30 505.5,-30 505.5,-10 485.5,-10"/>
<text text-anchor="start" x="509.2812" y="-15.4" font-family="sans-serif" font-size="14.00" fill="#000000"> &#160;Bootstrap</text>
<polygon fill="#fdb462" stroke="transparent" points="582.5,-10 582.5,-30 602.5,-30 602.5,-10 582.5,-10"/>
<text text-anchor="start" x="606.1732" y="-15.4" font-family="sans-serif" font-size="14.00" fill="#000000"> &#160;Providers</text>
<polygon fill="#fb8072" stroke="transparent" points="678.5,-10 678.5,-30 698.5,-30 698.5,-10 678.5,-10"/>
<text text-anchor="start" x="702.2258" y="-15.4" font-family="sans-serif" font-size="14.00" fill="#000000"> &#160;Exports</text>
<g id="clust1" class="cluster">
<title>cluster_CustomersModule</title>
<polygon fill="none" stroke="#000000" stroke-dasharray="1,5" points="8,-70 8,-195 1033,-195 1033,-70 8,-70"/>
</g>
<g id="clust2" class="cluster">
<title>cluster_CustomersModule_declarations</title>
<polygon fill="none" stroke="#000000" points="494,-78 494,-130 1025,-130 1025,-78 494,-78"/>
</g>
<g id="clust6" class="cluster">
<title>cluster_CustomersModule_imports</title>
<polygon fill="none" stroke="#000000" points="16,-78 16,-130 486,-130 486,-78 16,-78"/>
</g>
<!-- CustomersComponent -->
<g id="node1" class="node">
<title>CustomersComponent</title>
<polygon fill="#ffffb3" stroke="#000000" points="1016.7148,-122 875.2852,-122 875.2852,-86 1016.7148,-86 1016.7148,-122"/>
<text text-anchor="middle" x="946" y="-99.8" font-family="Times,serif" font-size="14.00" fill="#000000">CustomersComponent</text>
</g>
<!-- CustomersModule -->
<g id="node4" class="node">
<title>CustomersModule</title>
<polygon fill="#8dd3c7" stroke="#000000" points="550.9328,-187 547.9328,-191 526.9328,-191 523.9328,-187 431.0672,-187 431.0672,-151 550.9328,-151 550.9328,-187"/>
<text text-anchor="middle" x="491" y="-164.8" font-family="Times,serif" font-size="14.00" fill="#000000">CustomersModule</text>
</g>
<!-- CustomersComponent&#45;&gt;CustomersModule -->
<g id="edge1" class="edge">
<title>CustomersComponent&#45;&gt;CustomersModule</title>
<path fill="none" stroke="#000000" d="M946,-122.2843C946,-143.3211 946,-175 946,-175 946,-175 560.9512,-175 560.9512,-175"/>
<polygon fill="#000000" stroke="#000000" points="560.9512,-171.5001 550.9512,-175 560.9512,-178.5001 560.9512,-171.5001"/>
</g>
<!-- CustomersDetailComponent -->
<g id="node2" class="node">
<title>CustomersDetailComponent</title>
<polygon fill="#ffffb3" stroke="#000000" points="857.9227,-122 682.0773,-122 682.0773,-86 857.9227,-86 857.9227,-122"/>
<text text-anchor="middle" x="770" y="-99.8" font-family="Times,serif" font-size="14.00" fill="#000000">CustomersDetailComponent</text>
</g>
<!-- CustomersDetailComponent&#45;&gt;CustomersModule -->
<g id="edge2" class="edge">
<title>CustomersDetailComponent&#45;&gt;CustomersModule</title>
<path fill="none" stroke="#000000" d="M770,-122.0225C770,-139.3734 770,-163 770,-163 770,-163 560.8525,-163 560.8525,-163"/>
<polygon fill="#000000" stroke="#000000" points="560.8525,-159.5001 550.8525,-163 560.8525,-166.5001 560.8525,-159.5001"/>
</g>
<!-- CustomersListComponent -->
<g id="node3" class="node">
<title>CustomersListComponent</title>
<polygon fill="#ffffb3" stroke="#000000" points="664.493,-122 501.507,-122 501.507,-86 664.493,-86 664.493,-122"/>
<text text-anchor="middle" x="583" y="-99.8" font-family="Times,serif" font-size="14.00" fill="#000000">CustomersListComponent</text>
</g>
<!-- CustomersListComponent&#45;&gt;CustomersModule -->
<g id="edge3" class="edge">
<title>CustomersListComponent&#45;&gt;CustomersModule</title>
<path fill="none" stroke="#000000" d="M526.1098,-122.1061C526.1098,-122.1061 526.1098,-140.991 526.1098,-140.991"/>
<polygon fill="#000000" stroke="#000000" points="522.6098,-140.9909 526.1098,-150.991 529.6098,-140.991 522.6098,-140.9909"/>
</g>
<!-- CustomerServiceModule -->
<g id="node5" class="node">
<title>CustomerServiceModule</title>
<polygon fill="#8dd3c7" stroke="#000000" points="477.965,-122 474.965,-126 453.965,-126 450.965,-122 322.035,-122 322.035,-86 477.965,-86 477.965,-122"/>
<text text-anchor="middle" x="400" y="-99.8" font-family="Times,serif" font-size="14.00" fill="#000000">CustomerServiceModule</text>
</g>
<!-- CustomerServiceModule&#45;&gt;CustomersModule -->
<g id="edge4" class="edge">
<title>CustomerServiceModule&#45;&gt;CustomersModule</title>
<path fill="none" stroke="#000000" d="M454.6333,-122.1061C454.6333,-122.1061 454.6333,-140.991 454.6333,-140.991"/>
<polygon fill="#000000" stroke="#000000" points="451.1333,-140.9909 454.6333,-150.991 458.1333,-140.991 451.1333,-140.9909"/>
</g>
<!-- CustomersRoutingModule -->
<g id="node6" class="node">
<title>CustomersRoutingModule</title>
<polygon fill="#8dd3c7" stroke="#000000" points="304.0504,-122 301.0504,-126 280.0504,-126 277.0504,-122 139.9496,-122 139.9496,-86 304.0504,-86 304.0504,-122"/>
<text text-anchor="middle" x="222" y="-99.8" font-family="Times,serif" font-size="14.00" fill="#000000">CustomersRoutingModule</text>
</g>
<!-- CustomersRoutingModule&#45;&gt;CustomersModule -->
<g id="edge5" class="edge">
<title>CustomersRoutingModule&#45;&gt;CustomersModule</title>
<path fill="none" stroke="#000000" d="M222,-122.0225C222,-139.3734 222,-163 222,-163 222,-163 420.966,-163 420.966,-163"/>
<polygon fill="#000000" stroke="#000000" points="420.966,-166.5001 430.966,-163 420.9659,-159.5001 420.966,-166.5001"/>
</g>
<!-- SharedModule -->
<g id="node7" class="node">
<title>SharedModule</title>
<polygon fill="#8dd3c7" stroke="#000000" points="122.4231,-122 119.4231,-126 98.4231,-126 95.4231,-122 23.5769,-122 23.5769,-86 122.4231,-86 122.4231,-122"/>
<text text-anchor="middle" x="73" y="-99.8" font-family="Times,serif" font-size="14.00" fill="#000000">SharedModule</text>
</g>
<!-- SharedModule&#45;&gt;CustomersModule -->
<g id="edge6" class="edge">
<title>SharedModule&#45;&gt;CustomersModule</title>
<path fill="none" stroke="#000000" d="M73,-122.2843C73,-143.3211 73,-175 73,-175 73,-175 421.1108,-175 421.1108,-175"/>
<polygon fill="#000000" stroke="#000000" points="421.1108,-178.5001 431.1108,-175 421.1108,-171.5001 421.1108,-178.5001"/>
</g>
</g>
</svg>
